<svg width="24" height="22" viewBox="0 0 24 22" fill="none" xmlns="http://www.w3.org/2000/svg">
<path d="M12 22L10.26 20.4174C4.08 14.8185 0 11.1139 0 6.594C0 2.88937 2.904 0 6.6 0C8.688 0 10.692 0.971117 12 2.49373C13.308 0.971117 15.312 0 17.4 0C21.096 0 24 2.88937 24 6.594C24 11.1139 19.92 14.8185 13.74 20.4174L12 22Z" fill="#D6153F"/>
<path d="M11.9341 20.419L10.4522 19.0733C5.18902 14.3126 1.71429 11.1625 1.71429 7.31928C1.71429 4.16923 4.18748 1.7124 7.33517 1.7124C9.11342 1.7124 10.8201 2.53814 11.9341 3.83282C13.048 2.53814 14.7547 1.7124 16.533 1.7124C19.6807 1.7124 22.1539 4.16923 22.1539 7.31928C22.1539 11.1625 18.6791 14.3126 13.4159 19.0733L11.9341 20.419Z" fill="#520D1C" fill-opacity="0.46"/>
</svg>
