<svg width="99" height="69" viewBox="0 0 99 69" fill="none" xmlns="http://www.w3.org/2000/svg">
<path d="M76 0.599609H87.4C90.4235 0.599609 93.3231 1.80067 95.461 3.93858C97.5989 6.0765 98.8 8.97614 98.8 11.9996V57.5996C98.8 60.6231 97.5989 63.5227 95.461 65.6606C93.3231 67.7985 90.4235 68.9996 87.4 68.9996H11.4C8.37653 68.9996 5.4769 67.7985 3.33898 65.6606C1.20107 63.5227 0 60.6231 0 57.5996V11.9996C0 8.97614 1.20107 6.0765 3.33898 3.93858C5.4769 1.80067 8.37653 0.599609 11.4 0.599609H22.8H30.4H68.4H76Z" fill="#D6153F"/>
<path d="M49 54L45.955 51.2665C35.14 41.5956 28 35.1967 28 27.3896C28 20.9907 33.082 16 39.55 16C43.204 16 46.711 17.6774 49 20.3074C51.289 17.6774 54.796 16 58.45 16C64.918 16 70 20.9907 70 27.3896C70 35.1967 62.86 41.5956 52.045 51.2665L49 54Z" fill="#7D162C"/>
</svg>
